<?xml version="1.0" standalone="no"?><!DOCTYPE svg PUBLIC "-//W3C//DTD SVG 1.1//EN" "http://www.w3.org/Graphics/SVG/1.1/DTD/svg11.dtd"><svg t="1572925139867" class="icon" viewBox="0 0 1325 1024" version="1.1" xmlns="http://www.w3.org/2000/svg" p-id="1067" xmlns:xlink="http://www.w3.org/1999/xlink" width="258.7890625" height="200"><defs><style type="text/css"></style></defs><path d="M829.451948 566.127268a307.69341 307.69341 0 1 0-333.988543 0 25.671679 25.671679 0 0 1-4.290838 45.145481 450.244576 450.244576 0 0 0-271.386321 337.692601 64.252545 64.252545 0 0 0 63.665764 74.961302h758.231376a64.252545 64.252545 0 0 0 63.62909-74.961302 450.09788 450.09788 0 0 0-271.386321-337.39921 25.671679 25.671679 0 0 1-4.180816-45.365524z" p-id="1068"></path><path d="M1324.328572 801.2065a297.901498 297.901498 0 0 0-179.701753-223.380281 16.906634 16.906634 0 0 1-2.750537-29.925843 203.466393 203.466393 0 0 0-99.459419-374.366427 206.950407 206.950407 0 0 0-25.378289 0.256717 378.400548 378.400548 0 0 1-89.447464 404.76903 521.171757 521.171757 0 0 1 225.103951 272.193145h129.421936a42.578313 42.578313 0 0 0 42.248249-49.546341z m-927.11435-222.463435A380.197566 380.197566 0 0 1 307.620062 173.753992l-3.007254-0.220043a203.466393 203.466393 0 0 0-121.390368 374.366427 16.906634 16.906634 0 0 1-2.860558 29.889169 297.901498 297.901498 0 0 0-179.701753 223.416955 42.578313 42.578313 0 0 0 42.211575 49.656362h129.348588a521.171757 521.171757 0 0 1 224.883908-272.119797z" p-id="1069"></path></svg>